<svg xmlns="http://www.w3.org/2000/svg" viewBox="-58 -143.25 507.5 507.5" role="img" aria-label="The HairLoft by Colle &amp; Roy"><title>The HairLoft by Colle &amp; Roy</title><defs><linearGradient id="rg" x1="0" y1="0" x2="0" y2="1"><stop offset="0" stop-color="#F3D9C8"/><stop offset=".5" stop-color="#E2B8A0"/><stop offset="1" stop-color="#C9977B"/></linearGradient></defs><rect x="-58" y="-143.25" width="507.5" height="507.5" fill="#1E1411"/><g fill="url(#rg)"><path d="M49.07 100V97.18Q53.06 96.89 55.11 96.05Q57.17 95.2 57.87 92.66Q58.58 90.11 58.58 85.03V14.97Q58.58 9.75 57.87 7.27Q57.17 4.8 55.11 3.88Q53.06 2.97 49.07 2.82V0Q51.77 0.14 55.88 0.28Q59.98 0.42 63.97 0.42Q68.55 0.42 72.54 0.28Q76.53 0.14 79 0V2.82Q75.01 2.97 72.95 3.88Q70.9 4.8 70.2 7.27Q69.49 9.75 69.49 14.97V85.03Q69.49 90.11 70.2 92.66Q70.9 95.2 72.95 96.05Q75.01 96.89 79 97.18V100Q76.53 99.72 72.54 99.65Q68.55 99.58 63.97 99.58Q59.98 99.58 55.88 99.65Q51.77 99.72 49.07 100ZM0 100V97.18Q3.99 96.89 6.05 96.05Q8.1 95.2 8.8 92.66Q9.51 90.11 9.51 85.03V14.97Q9.51 9.75 8.8 7.27Q8.1 4.8 6.05 3.88Q3.99 2.97 0 2.82V0Q2.47 0.14 6.46 0.28Q10.45 0.42 15.03 0.42Q19.13 0.42 23.18 0.28Q27.23 0.14 29.93 0V2.82Q25.94 2.97 23.89 3.88Q21.83 4.8 21.13 7.27Q20.42 9.75 20.42 14.97V85.03Q20.42 90.11 21.13 92.66Q21.83 95.2 23.89 96.05Q25.94 96.89 29.93 97.18V100Q27.23 99.72 23.18 99.65Q19.13 99.58 15.03 99.58Q10.45 99.58 6.46 99.65Q2.47 99.72 0 100ZM16.32 51.13V48.31H62.68V51.13Z M144.32 -0.71 182.27 88.14Q184.6 93.5 187.56 95.27Q190.51 97.03 193 97.18V100Q189.89 99.72 185.38 99.65Q180.87 99.58 176.36 99.58Q170.29 99.58 165.01 99.65Q159.72 99.72 156.45 100V97.18Q164.38 96.89 166.56 94.7Q168.74 92.51 165.63 85.31L136.7 15.11L139.19 13.28L112.13 77.12Q109.64 82.77 109.17 86.65Q108.71 90.54 110.03 92.8Q111.35 95.06 114.54 96.05Q117.73 97.03 122.55 97.18V100Q118.19 99.72 113.45 99.65Q108.71 99.58 104.66 99.58Q100.78 99.58 98.05 99.65Q95.33 99.72 93 100V97.18Q96.11 96.47 99.38 93.86Q102.64 91.24 105.29 84.89L141.83 -0.71Q142.46 -0.71 143.08 -0.71Q143.7 -0.71 144.32 -0.71ZM163.3 59.32V62.15H116.95L118.51 59.32Z M240 0V2.82Q236.4 2.97 234.55 3.88Q232.69 4.8 232.06 7.27Q231.42 9.75 231.42 14.97V85.03Q231.42 90.11 232.06 92.66Q232.69 95.2 234.55 96.05Q236.4 96.89 240 97.18V100Q237.56 99.72 233.91 99.65Q230.26 99.58 226.55 99.58Q222.42 99.58 218.82 99.65Q215.22 99.72 213 100V97.18Q216.6 96.89 218.45 96.05Q220.31 95.2 220.94 92.66Q221.58 90.11 221.58 85.03V14.97Q221.58 9.75 220.94 7.27Q220.31 4.8 218.45 3.88Q216.6 2.97 213 2.82V0Q215.22 0.14 218.82 0.28Q222.42 0.42 226.55 0.42Q230.26 0.42 233.91 0.28Q237.56 0.14 240 0Z M257 0Q259.86 0.14 264.49 0.28Q269.12 0.42 273.61 0.42Q280.02 0.42 285.87 0.28Q291.73 0.14 294.18 0.14Q310.66 0.14 318.83 7.91Q327 15.68 327 27.97Q327 33.05 325.37 38.63Q323.73 44.21 319.71 48.94Q315.7 53.67 308.75 56.64Q301.81 59.6 291.18 59.6H278.11V56.78H289.82Q299.49 56.78 304.6 52.97Q309.7 49.15 311.54 42.94Q313.38 36.72 313.38 29.52Q313.38 16.1 308.27 9.46Q303.17 2.82 290.77 2.82Q284.51 2.82 282.6 5.23Q280.7 7.63 280.7 14.97V85.03Q280.7 90.11 281.72 92.66Q282.74 95.2 285.74 96.05Q288.73 96.89 294.45 97.18V100Q290.91 99.72 285.46 99.65Q280.02 99.58 274.43 99.58Q269.12 99.58 264.49 99.65Q259.86 99.72 257 100V97.18Q261.63 96.89 264.01 96.05Q266.4 95.2 267.21 92.66Q268.03 90.11 268.03 85.03V14.97Q268.03 9.75 267.21 7.27Q266.4 4.8 264.01 3.88Q261.63 2.97 257 2.82Z M33.9 121V123.82Q29.38 123.97 27.05 124.88Q24.73 125.8 23.93 128.27Q23.13 130.75 23.13 135.97V206.03Q23.13 211.11 23.93 213.66Q24.73 216.2 27.05 216.97Q29.38 217.75 33.9 217.75H43.61Q49.86 217.75 53.78 216.34Q57.7 214.93 60.03 211.89Q62.35 208.85 63.55 203.77Q64.75 198.68 65.41 191.34H68.47Q68.07 195.72 68.07 202.92Q68.07 205.6 68.27 210.62Q68.47 215.63 69 221Q62.22 220.72 53.71 220.65Q45.2 220.58 38.55 220.58Q35.63 220.58 31.04 220.58Q26.46 220.58 21.14 220.65Q15.82 220.72 10.37 220.79Q4.92 220.86 0 221V218.18Q4.52 217.89 6.85 217.05Q9.17 216.2 9.97 213.66Q10.77 211.11 10.77 206.03V135.97Q10.77 130.75 9.97 128.27Q9.17 125.8 6.85 124.88Q4.52 123.97 0 123.82V121Q2.79 121.14 7.31 121.28Q11.83 121.42 17.02 121.42Q21.67 121.42 26.26 121.28Q30.84 121.14 33.9 121Z M137.58 119.02Q153.29 119.02 165.11 125.1Q176.94 131.17 183.47 142.54Q190 153.91 190 170.15Q190 185.97 183.3 197.84Q176.61 209.7 164.7 216.34Q152.8 222.98 137.42 222.98Q121.71 222.98 109.89 216.9Q98.06 210.83 91.53 199.39Q85 187.95 85 171.85Q85 156.03 91.78 144.16Q98.56 132.3 110.38 125.66Q122.2 119.02 137.58 119.02ZM136.92 121.56Q126.17 121.56 118.24 127.92Q110.3 134.28 105.92 145.44Q101.54 156.59 101.54 171.28Q101.54 186.25 106.41 197.34Q111.29 208.43 119.64 214.43Q127.99 220.44 138.08 220.44Q148.83 220.44 156.76 214.08Q164.7 207.72 169.08 196.49Q173.46 185.27 173.46 170.72Q173.46 155.6 168.59 144.59Q163.71 133.57 155.44 127.57Q147.17 121.56 136.92 121.56Z M265 121Q264.53 126.37 264.35 131.38Q264.17 136.4 264.17 139.08Q264.17 142.47 264.29 145.44Q264.41 148.4 264.53 150.66H261.81Q260.98 140.77 259.56 135.05Q258.14 129.33 254.6 126.79Q251.05 124.25 243.6 124.25H236.15Q232.13 124.25 230.06 125.03Q227.99 125.8 227.28 128.27Q226.57 130.75 226.57 135.97V206.03Q226.57 211.11 227.46 213.66Q228.35 216.2 230.95 217.05Q233.55 217.89 238.52 218.18V221Q235.44 220.72 230.71 220.65Q225.98 220.58 221.13 220.58Q216.52 220.58 212.5 220.65Q208.48 220.72 206 221V218.18Q210.02 217.89 212.09 217.05Q214.16 216.2 214.87 213.66Q215.58 211.11 215.58 206.03V135.97Q215.58 130.75 214.87 128.27Q214.16 125.8 212.09 124.88Q210.02 123.97 206 123.82V121Q210.37 121.14 215.22 121.21Q220.07 121.28 224.8 121.35Q229.53 121.42 233.61 121.42Q237.69 121.42 240.29 121.42Q245.73 121.42 252.64 121.35Q259.56 121.28 265 121ZM246.67 170.72Q246.67 170.72 246.67 172.13Q246.67 173.54 246.67 173.54H223.03Q223.03 173.54 223.03 172.13Q223.03 170.72 223.03 170.72ZM248.92 152.07Q248.45 160.12 248.51 164.36Q248.57 168.6 248.57 172.13Q248.57 175.66 248.68 179.9Q248.8 184.14 249.27 192.19H246.56Q246.08 187.67 245.43 183.36Q244.78 179.05 242.59 176.3Q240.41 173.54 235.2 173.54V170.72Q239.11 170.72 241.18 168.81Q243.24 166.9 244.19 163.94Q245.14 160.97 245.49 157.79Q245.85 154.62 246.2 152.07Z M318 121V123.82Q314.4 123.97 312.55 124.88Q310.69 125.8 310.06 128.27Q309.42 130.75 309.42 135.97V206.03Q309.42 211.11 310.06 213.66Q310.69 216.2 312.55 217.05Q314.4 217.89 318 218.18V221Q315.56 220.72 311.91 220.65Q308.26 220.58 304.55 220.58Q300.42 220.58 296.82 220.65Q293.22 220.72 291 221V218.18Q294.6 217.89 296.45 217.05Q298.31 216.2 298.94 213.66Q299.58 211.11 299.58 206.03V135.97Q299.58 130.75 298.94 128.27Q298.31 125.8 296.45 124.88Q294.6 123.97 291 123.82V121Q293.22 121.14 296.82 121.28Q300.42 121.42 304.55 121.42Q308.26 121.42 311.91 121.28Q315.56 121.14 318 121Z M283.0 50.5L300.5 50.5L391.5 221.0L374.0 221.0Z"/></g></svg>
